<?xml version="1.0" encoding="UTF-8" standalone="no"?>
<!-- Created with Inkscape (http://www.inkscape.org/) -->

<svg
   xmlns:dc="http://purl.org/dc/elements/1.1/"
   xmlns:cc="http://creativecommons.org/ns#"
   xmlns:rdf="http://www.w3.org/1999/02/22-rdf-syntax-ns#"
   xmlns:svg="http://www.w3.org/2000/svg"
   xmlns="http://www.w3.org/2000/svg"
   xmlns:sodipodi="http://sodipodi.sourceforge.net/DTD/sodipodi-0.dtd"
   xmlns:inkscape="http://www.inkscape.org/namespaces/inkscape"
   width="300"
   height="200"
   id="svg2577"
   sodipodi:version="0.32"
   inkscape:version="0.91 r13725"
   version="1.0"
   sodipodi:docname="Superhero.svg"
   inkscape:output_extension="org.inkscape.output.svg.inkscape">
  <defs
     id="defs2579">
    <inkscape:perspective
       sodipodi:type="inkscape:persp3d"
       inkscape:vp_x="-50 : 600 : 1"
       inkscape:vp_y="0 : 1000 : 0"
       inkscape:vp_z="700 : 600 : 1"
       inkscape:persp3d-origin="300 : 400 : 1"
       id="perspective2585" />
  </defs>
  <sodipodi:namedview
     id="base"
     pagecolor="#ffffff"
     bordercolor="#666666"
     borderopacity="1.0"
     inkscape:pageopacity="0.0"
     inkscape:pageshadow="2"
     inkscape:zoom="5.6"
     inkscape:cx="144.83997"
     inkscape:cy="104.58015"
     inkscape:document-units="px"
     inkscape:current-layer="layer1"
     showgrid="false"
     inkscape:window-width="1428"
     inkscape:window-height="775"
     inkscape:window-x="7"
     inkscape:window-y="0"
     inkscape:window-maximized="0" />
  <metadata
     id="metadata2582">
    <rdf:RDF>
      <cc:Work
         rdf:about="">
        <dc:format>image/svg+xml</dc:format>
        <dc:type
           rdf:resource="http://purl.org/dc/dcmitype/StillImage" />
        <dc:title></dc:title>
      </cc:Work>
    </rdf:RDF>
  </metadata>
  <g
     inkscape:label="Calque 1"
     inkscape:groupmode="layer"
     id="layer1">
    <path
       inkscape:connector-curvature="0"
       style="opacity:1;fill:#ffffff;fill-opacity:1;fill-rule:evenodd;stroke:none;stroke-width:0;stroke-linecap:round;stroke-linejoin:round;stroke-miterlimit:4;stroke-dasharray:none;stroke-dashoffset:46.99999619;stroke-opacity:1"
       d="m 160.70939,53.188317 -13.21402,7.292127 -14.29536,-0.468193 -2.97916,1.814006 6.78752,10.631286 9.87487,12.709426 21.77983,20.601631 7.02795,19.28054 -5.58596,1.45369 -0.74471,4.34868 24.66314,30.90867 24.00192,7.12311 -10.60756,-7.92828 0.13191,-10.8236 15.8933,11.2437 2.10188,-17.80315 7.18358,-6.25885 2.94342,12.4693 5.87416,-6.65527 0.76842,-19.0645 2.4502,-20.84239 -3.39962,2.25847 -6.70336,-7.603993 -1.62166,3.940233 -3.15949,-4.67295 -17.68226,33.38422 -24.0981,-10.58284 -11.38833,-4.87697 -4.64923,-11.55633 8.97354,-4.144609 4.22846,-3.579959 2.21008,-13.910972 4.45654,-10.943828 2.84692,-6.571112 -0.26449,-9.514214 -16.09735,-3.014915 -2.13794,16.505785 L 163.929,60.0236 160.70939,53.188317 Z"
       id="path2572" />
    <path
       inkscape:connector-curvature="0"
       style="fill:#003cd1;fill-opacity:1;fill-rule:evenodd;stroke:none;stroke-width:1px;stroke-linecap:butt;stroke-linejoin:miter;stroke-opacity:1"
       d="m 162.34234,17.374356 c -5.2602,0.30212 -14.04586,3.438154 -18.07345,6.100103 -4.44423,2.937329 -7.26244,6.410966 -9.03936,10.839659 -1.7769,4.428657 -3.43869,12.669272 -2.67963,16.822551 2.27956,3.804986 2.52266,5.362195 5.01386,8.111004 2.49118,2.748845 7.34952,8.870987 11.60839,8.793166 1.66796,-5.208385 4.53304,-8.668578 9.38696,-8.848547 8.04113,3.277072 16.21848,9.047575 19.06068,9.698842 1.71741,-3.63867 1.9618,-6.008339 2.28321,-7.729398 0.29899,-1.600982 1.53228,-2.396083 2.41013,-3.06559 0.87784,-0.669543 1.50174,-1.095567 2.51453,-1.736022 1.01278,-0.640418 1.42035,-0.82645 3.18416,-0.290843 1.76383,0.535607 4.40949,1.95265 6.10137,4.371471 -0.40631,-1.501309 1.66935,-1.85669 1.77014,-4.253084 0.10079,-2.396394 0.10043,-7.667819 -0.62358,-10.301268 -0.724,-2.633449 -2.00574,-4.375009 -3.61206,-7.014684 -1.60631,-2.639675 -5.28101,-7.861146 -7.9803,-10.501443 -2.69928,-2.640224 -6.54515,-5.090059 -9.6996,-6.845454 -3.15445,-1.755395 -5.2159,-3.79695 -10.11917,-4.147375 -0.45968,-0.03287 -0.96213,-0.03433 -1.50628,-0.0031 z m -41.43271,51.317279 c -2.46775,0.05637 -4.84014,0.499674 -6.78449,1.784764 -4.44424,2.937293 -6.73244,3.642374 -8.50935,8.071031 -9.85518,0.06272 -20.141149,1.624772 -24.662325,7.643365 2.279558,3.804986 5.528522,3.746284 10.134797,5.518258 5.540667,2.357975 13.877658,12.053547 17.015328,15.679287 0.7593,6.14017 -0.20786,7.99068 -4.69766,12.96703 6.99451,-0.23952 19.93961,1.28752 22.90081,6.21996 5.67602,6.6565 8.62512,10.29576 12.97249,12.17233 2.9289,5.89447 6.15273,9.35391 7.03056,8.68436 5.12501,-2.0117 9.98563,7.3037 10.99841,6.66325 5.93106,0.141 19.90865,3.54914 21.67247,4.08474 1.76383,0.53561 8.34724,0.62815 14.59211,1.69627 -7.0491,-9.27352 -24.20738,-30.21596 -24.1066,-32.61239 0.55185,-0.91978 3.55354,-2.41317 7.11851,-4.31295 -4.94964,-6.03602 8.38132,-1.47076 33.95158,11.2649 3.0773,-1.31205 3.53099,-2.07965 4.23419,-2.57457 2.05367,-6.95918 17.31041,-32.061877 15.83888,-33.65932 -0.73577,-0.798704 3.12316,0.744997 4.77826,1.697593 2.42798,-4.271515 -6.06323,-14.400504 -6.98394,-15.355496 -1.8414,-1.909947 -14.82026,-3.920686 -26.52421,-4.426999 -1.65511,-2.315856 -8.46556,-3.254518 -12.07939,-4.15831 -2.53491,4.880853 -5.15195,12.948108 -3.56827,8.588992 -1.3978,-1.521945 -2.70555,12.799205 -1.90025,12.111751 -0.73218,-0.950736 -4.9232,2.831011 -4.73091,2.672401 2.62946,-0.223087 -6.34329,5.835948 -6.52428,5.177608 -7.45157,-2.44639 -10.30774,-5.972811 -13.72335,-7.644044 -3.10131,-1.374019 -8.94267,-7.451856 -11.99877,-11.918414 -1.2468,-5.434964 -5.763,-10.018728 -8.62865,-12.394236 -3.15446,-1.755359 -4.18914,0.165266 -8.55733,-2.954359 -2.75809,-0.197123 -6.08579,-0.759035 -9.25862,-0.686802 z"
       id="path2556"
       sodipodi:nodetypes="csscscccsssscssssssccscccccccccsccccccccccccccccccc" />
    <path
       inkscape:connector-curvature="0"
       style="fill:#d82b26;fill-opacity:1;fill-rule:evenodd;stroke:none;stroke-width:0;stroke-linecap:round;stroke-linejoin:round;stroke-miterlimit:4;stroke-dasharray:none;stroke-dashoffset:46.99999619;stroke-opacity:1"
       d="m 70.90987,83.334404 c -5.026708,-1.981784 -7.519729,-2.439425 -8.082814,-2.248639 -6.006238,2.034875 -5.686845,8.381356 -7.764861,11.804634 -5.641448,1.839098 -5.646767,11.577131 -5.646767,11.577131 l -3.813385,3.12963 c 0.136031,4.89279 1.46928,19.19008 3.522025,27.63195 1.944008,2.53314 5.786826,4.32137 10.758504,7.33307 3.097785,-0.36646 12.504646,-3.64785 18.881207,-4.94234 3.106175,-3.34579 7.907668,-5.44512 10.990603,-8.17375 l 15.510678,-9.73816 c 0,0 4.6931,-6.80037 2.79642,-11.81262 C 106.20305,102.98415 96.303016,94.5307 89.409415,90.350667 83.162086,86.562499 76.394738,85.735762 70.90987,83.334404 Z m 149.97326,55.847936 c 1.71238,4.02484 4.15295,13.08769 2.97924,18.64475 -5.44354,-3.1653 -17.04219,-12.08624 -18.19179,-8.44955 -1.17326,3.71153 -3.39894,6.23425 -3.39893,6.23425 l 3.18081,5.585 c 1.17295,0.92723 7.15088,3.95002 9.13164,5.65539 0.80634,0.69426 2.61145,2.18035 4.25422,2.90439 1.38852,5.09618 2.84325,7.58767 4.3592,10.08501 4.29264,3.54242 9.48099,3.1691 16.90187,2.08444 4.39709,-0.67896 8.09821,-0.82073 8.64654,-4.05067 0.54247,-3.19528 2.12337,-11.92516 -0.37358,-19.67364 -1.86609,-5.79089 -4.77801,-15.03806 -7.10084,-15.94883 -2.32282,-0.91076 -3.45682,5.68629 -6.29312,8.74762 l -1.30635,-17.9789 c 0,0 -2.61136,-1.37444 -5.59352,1.16529 0.43317,2.30425 -0.17927,0.30748 -1.40356,5.69719 -0.55431,-2.29124 -1.47244,-2.79472 -5.79183,-0.70174 z"
       id="path2561"
       sodipodi:nodetypes="csccccccccsscccsccsccczszccccc" />
    <path
       inkscape:connector-curvature="0"
       sodipodi:nodetypes="cccccccccccccccccccccccccccccccccccccccccccccccccccccccccccccscccccccccccccccccccccccccccccccccccccccccccccscccccccccccccccccccccccccccccccccccccccccccccccccccccccccccccccccccccccccccccccccsccccccccccccccccccccccccccccccccccccccccccccccccccccccccccccccccccccccccccccccccccccccccccccccccccccccccccsccccccccccccccccccccccccccccccccccsccscccccccccccccccccccccccccccccccccccccccccccccccccccccccccccccccccccccccccccccccccccccccccccccccccccccccccccccccccccccccccccccssssccccccccccccccccccccccccccccccccccccccccccccssssccssssccccccccccccccccccccccccccccccccccccc"
       id="path2655"
       d="m 161.37328,16.47959 c -7.0405,1.470606 -14.24218,3.388831 -20.21429,7.530935 -4.97655,3.850848 -7.63138,9.915788 -8.95408,15.929165 -1.99722,4.600491 -0.48288,9.487511 0.52632,14.080679 0.58087,1.120976 0.97493,3.612455 1.8003,5.322856 -2.38068,0.176714 -4.15199,1.32042 -3.44867,3.310563 0.12314,3.358274 1.64338,4.068879 2.96561,6.807885 -0.0678,1.594734 -2.04824,0.207686 -3.02599,-0.08447 -5.69848,-0.705058 -11.62513,-0.198128 -17.40654,-0.23549 -1.95922,1.118931 -2.77576,2.334866 -3.60436,2.561809 -1.15037,2.182852 -2.92264,4.247607 -5.24039,5.170079 -1.23629,2.083485 -3.44538,1.824628 -5.579271,1.874885 -4.958781,0.574118 -10.560552,-0.429185 -14.905889,2.38141 -1.446949,1.593401 -2.945734,3.216946 -4.848541,4.304958 -0.0762,0.189121 -0.171433,0.335824 -0.279844,0.44617 L 72.24171,83.341873 c 0.04308,-0.233881 -0.02723,-0.410296 -0.597783,-0.477955 -3.973078,-1.020812 -4.239906,-2.539415 -8.252506,-2.90665 -1.982021,0.0256 -3.627912,1.512924 -4.511003,2.699451 -2.099489,2.758125 -2.345168,6.435841 -4.124618,9.320456 -2.499511,1.752366 -4.645035,4.318293 -5.267476,7.430152 -0.620804,2.148743 -0.03328,5.065863 -2.422154,6.271983 -2.274171,1.76398 -2.081746,4.77697 -2.268944,7.33557 l 2.133118,16.48644 c 1.020878,-1.175 1.519299,4.5915 1.715126,5.49377 1.771995,2.34883 4.632357,3.90357 6.320425,6.18635 1.949106,-0.19313 3.32305,1.24308 4.913884,2.08894 0.461848,0.4571 2.477245,-0.20015 3.314562,-0.85648 l 3.766941,-1.16127 -0.252404,-0.18409 c 3.730128,-0.88203 7.400854,-2.36697 11.268393,-2.62876 1.138279,0.0772 1.921068,-0.43021 2.251911,-1.47888 2.045911,-2.49712 6.054308,-2.33878 7.686067,-5.33925 1.067283,-1.75747 3.467751,-1.5994 4.884448,-3.0133 2.861533,-1.97166 5.938319,-3.64094 8.442003,-6.04594 3.69906,-1.89786 6.56971,0.82238 10.26103,-0.45384 1.4404,-0.71151 5.24809,0.0421 6.24918,1.1976 1.33568,0.67728 3.11568,-0.0632 4.24839,1.19699 4.03755,3.33661 7.34668,7.63633 11.6153,10.65891 1.18111,0.89236 2.55902,1.51861 3.67873,2.53918 1.9241,2.70954 3.39779,5.76094 6.28239,7.64861 2.74365,1.8157 5.30158,4.19527 8.54676,5.00043 2.21563,1.09999 2.80016,4.27649 5.01223,5.22227 2.48963,-1.11433 5.12182,0.6953 7.70366,0.55018 2.80868,0.51793 5.97647,-0.31742 8.45901,1.43964 3.17635,0.70291 6.54077,0.78778 9.72414,1.66301 2.09975,0.3498 3.47047,-2.64334 5.61548,-1.38129 2.15058,0.81531 2.82581,3.53403 5.29891,3.80928 5.83326,1.68079 10.8569,4.18651 16.84502,6.07027 2.58184,0.89414 3.75585,0.79809 6.54826,2.03049 1.80824,2.88487 1.65792,2.86657 3.36408,5.7122 1.00053,2.02645 2.54177,4.84314 3.34259,5.53788 1.15129,1.17008 2.56285,1.77885 4.22033,1.80479 2.33529,0.61676 4.63158,1.71077 7.085,0.93829 4.41131,-0.81643 9.12632,-1.2308 13.2127,-3.0425 1.47346,-3.63616 1.76721,-12.84131 1.04794,-16.8611 -0.94091,-4.50529 -2.31519,-6.98488 -2.97078,-11.35091 -1.67534,-4.23295 -2.46157,-6.1532 -4.71245,-10.32641 -0.12955,-3.4296 0.38019,-6.89701 0.45497,-10.31999 0.0994,-0.36864 0.32187,-0.5737 0.599,-0.69107 l 0.18747,-1.74748 c -0.002,-0.004 0.002,-0.009 -3.1e-4,-0.0111 -0.0348,-0.052 -0.0712,-0.10276 -0.10577,-0.16568 -0.1571,-0.59006 -0.2759,-1.67698 0.32724,-1.97613 l 0.0346,-0.37192 c -0.9354,-0.43914 -0.3966,-2.44943 -0.51236,-3.47021 0.30391,-1.29988 -0.38359,-3.72331 1.01668,-4.26588 0.16348,-0.0128 0.29887,0.006 0.40621,0.0562 l 1.0447,-8.11084 c -0.1087,-2.56599 -0.23964,-5.13845 0.2382,-7.60507 0.3938,-0.47693 1.28483,-0.94379 0.50662,-1.58773 -0.60695,-0.68589 -1.97524,-0.68313 -1.91904,0.51422 -0.32886,1.5116 -2.57872,2.21166 -3.2659,0.58536 -0.86557,-1.62687 -2.83965,-2.18422 -3.69934,-3.685157 0.12391,-1.485008 1.24101,-2.909789 0.61671,-4.502009 -0.88167,-2.604752 -4.11423,-5.699906 -5.44128,-8.121603 -3.69122,-4.373223 -7.68417,-4.890636 -12.65228,-7.123098 -1.56262,0.106134 -2.67189,-1.230714 -4.2827,-0.813871 -3.79166,-0.116415 -7.89737,1.384109 -11.4803,-0.141726 -1.54619,-1.378511 -3.36302,-2.411606 -5.5101,-2.510758 -2.21534,-0.80408 -4.59,-0.549265 -6.85101,-1.012277 -1.22843,-1.162503 0.52036,-3.007949 0.86911,-4.317923 3.27432,-8.323821 4.93643,-17.770917 2.8688,-26.595655 -2.31924,-8.209184 -8.49118,-14.831611 -15.32974,-19.738956 -4.77722,-2.742557 -9.1244,-6.514883 -14.68739,-7.549838 -1.30392,-0.3115 -2.63943,-0.481627 -3.97913,-0.406437 z m -0.18092,1.578673 c 4.06235,0.03055 7.24495,1.415077 10.9066,2.956493 4.41167,2.721462 8.26258,6.954499 12.61115,9.687031 2.09471,0.994725 2.39655,2.395419 3.39141,3.525064 2.53548,3.668456 4.05465,7.955379 4.51382,12.362519 2.10348,0.02562 1.40262,2.84662 1.7463,4.189032 0.25238,2.628864 0.54136,5.264191 0.81509,7.890518 -2.19319,-2.302157 -5.06293,-4.556048 -8.82005,-4.318337 -3.0148,0.429219 -3.84374,1.374328 -5.56332,3.661633 -1.8357,2.601376 -3.00681,6.512036 -4.54394,9.197228 -3.84236,0.470066 -6.38156,-3.685306 -9.24251,-5.767869 -3.01635,-2.497354 -7.20917,-4.181188 -10.99426,-2.470705 -3.37361,1.238677 -5.42674,4.351894 -7.41023,7.174991 -4.12604,-1.825754 -4.2919,-2.713606 -8.16739,-5.505545 -2.38,-0.873312 -3.28236,-1.511387 -5.04559,-3.99617 -1.76213,-4.126509 -2.80627,-8.981064 -2.27563,-13.526253 0.68375,-1.017183 0.67944,-1.771405 0.68912,-3.11026 0.12691,-2.874356 1.5012,-5.732241 3.23609,-8.126763 2.2579,-4.394189 5.31462,-7.319779 10.04838,-8.911895 4.55028,-2.178058 9.11204,-4.063251 14.10496,-4.910712 z m 24.14698,38.917094 c 0.21677,-0.006 0.45153,-0.0025 0.70821,0.0026 0.1369,0.0027 0.2782,0.02104 0.42836,0.04428 2.54529,0.204801 5.58896,1.247493 6.75685,3.690088 0.30283,1.817511 1.14543,4.745738 -1.10214,5.639534 -1.54077,1.960807 -3.49761,3.806209 -5.81165,4.837528 -2.59157,2.215328 -5.79205,3.379988 -8.91969,4.631718 -1.88643,1.219635 -3.9465,1.862263 -6.19607,1.925735 -2.4022,0.564914 -5.25465,1.884672 -7.44813,0.150833 -2.78389,-1.237312 -6.04609,-1.856329 -8.30432,-3.961798 -0.48939,-0.836378 -2.61694,-2.353395 -3.81133,-2.861489 -1.62976,-1.736885 -0.47632,-1.438539 -1.71602,-3.504233 0.16068,-1.456822 1.29396,-3.461153 2.13142,-4.195685 1.60995,-3.021261 5.67402,-4.225395 8.75937,-2.716373 3.78147,1.289467 6.97461,3.856866 10.46426,5.643983 1.17397,0.754798 1.87656,2.221325 2.93651,2.93077 1.25883,-0.03859 3.68744,1.077922 3.83309,-0.803421 0.97461,-2.123869 0.90306,-4.921023 2.53509,-6.65733 0.84374,-0.02345 1.47885,-2.130585 1.81415,-3.074057 0.80639,-1.330861 1.4245,-1.685109 2.94203,-1.722871 z m -51.6726,4.415164 c 2.59242,0.40168 2.89129,6.225203 4.66378,7.243992 2.47131,0.0063 -0.0392,-0.888496 1.82977,-2.107861 2.27169,7.594466 0.10254,1.824266 3.46447,6.153302 -3.55185,0.625361 -4.84619,-1.890981 -7.57644,-3.656046 -0.53829,-0.960839 -1.29005,-3.008121 -2.74403,-3.689239 -1.65144,-1.881309 -1.86341,-3.915326 0.36245,-3.944148 z m -8.5786,8.814816 c 2.30554,-0.04899 4.60884,0.15204 6.58957,1.311794 1.84471,1.698609 5.22388,-0.04742 6.67975,2.129775 -1.76628,1.270859 -3.02709,3.656195 -1.69963,4.363526 2.24642,-0.559468 2.35081,-1.458034 3.15917,-1.998639 1.58349,1.096305 1.36508,3.63596 0.88866,5.280721 -0.15985,0.890432 -1.12331,1.312946 -1.57988,1.797408 0.3131,0.6919 1.7943,0.415019 1.79647,1.546147 0.0722,1.192199 1.17339,-0.514784 1.1768,-0.931939 0.84664,-1.252092 0.67803,-2.849212 1.27907,-4.127029 1.82707,-0.603491 2.00361,2.150674 2.53094,3.301734 2.1882,4.861525 6.19165,8.667902 9.91967,12.335901 0.99232,1.300029 2.57321,1.435603 3.92425,2.071492 4.13261,2.526715 6.20592,5.733552 10.8702,7.307522 0.88113,0.0683 1.53709,-0.32271 3.14673,-0.02 1.67411,-0.83826 6.00321,-3.34867 6.42282,-5.090552 0.93634,-0.584268 4.81539,-1.413641 4.86567,-6.115106 0.18536,-2.777822 0.0618,-5.658057 1.34637,-8.175411 1.193,-3.052042 1.72035,-6.787046 4.17672,-9.063395 0.9941,-0.714571 2.59289,0.449074 1.49041,1.45351 -0.70302,0.547101 -0.65576,1.133053 0.22153,0.690741 1.31495,-0.958008 2.98265,-0.919303 4.2961,0.0829 0.99445,0.398083 3.18397,1.614295 1.79743,2.793812 -1.03316,0.273814 -1.9787,0.614576 -2.76108,1.358187 -0.81426,0.0617 -1.81968,0.952257 -1.73057,1.632975 1.23643,-0.415104 2.76066,-1.579781 3.8512,-0.152022 1.13992,0.938466 2.02023,2.207583 2.46979,3.52824 0.53854,0.571755 1.66454,0.427941 1.12034,-0.536941 -0.29935,-1.076611 -2.20556,-2.928285 -0.34326,-3.452472 3.27514,-0.420199 6.75229,-0.07372 9.90846,-1.006087 0.53241,-1.31267 2.7331,-1.352985 2.65036,0.319714 1.51607,-0.09797 3.10485,0.02026 4.24465,1.062252 1.1422,0.380992 1.79304,-1.289372 2.95547,-0.430591 3.63293,0.570655 6.01697,1.0851 8.88835,3.540875 1.19472,2.511521 3.29192,5.482205 4.48347,8.035826 0.64272,2.556038 1.17715,3.538781 -0.58863,4.298939 -0.54904,-0.679838 -1.96179,-1.598094 -2.8033,-3.395343 -0.94112,2.186244 -1.83488,2.895579 -2.74103,5.314182 -1.9305,5.77097 -5.77861,10.63938 -7.81749,16.38088 -1.59739,4.12135 -4.17981,7.87147 -5.4527,12.08879 0.36317,1.86242 -1.4796,2.81816 -3.03529,2.81579 -1.2328,0.30034 -2.09353,-0.62593 -2.51748,-1.60484 -1.7629,-1.19253 -1.01103,-0.72285 -2.68128,-1.83631 -1.08557,-0.54212 -0.83289,-2.96896 -2.23769,-4.47888 1.98858,0.9152 6.3468,2.49372 6.21954,0.93991 -4.78862,-3.09348 -8.00683,-3.27572 -8.43389,-8.6229 1.22229,-7.79174 -0.12928,-11.15144 -0.81983,-10.48692 -2.6013,1.94317 -1.71709,8.54796 -2.46582,6.72281 -0.2066,-2.22279 -1.48359,-4.78914 -0.64784,-6.72617 -1.15425,-0.40347 -1.37665,1.69464 -1.7084,2.43043 -0.33061,1.8939 1.25432,8.70952 1.78668,10.49374 1.49131,3.54451 3.68132,6.90691 5.24973,8.91375 -4.17113,-0.59252 -13.89627,-5.22129 -15.65109,-5.42109 -3.57537,-1.31775 -7.43679,-1.99877 -10.84734,-3.65504 -1.37091,-0.28834 -3.12233,-0.79038 -4.39657,-0.46227 0.60559,1.48199 2.56901,2.3212 2.56184,4.00899 -1.89067,0.94974 -5.47185,0.0399 -6.22231,0.98228 -0.75046,0.94242 2.28277,2.65465 0.40691,3.31582 -0.64329,0.0573 -1.63563,-0.0446 -0.84267,0.82147 4.45182,5.84724 7.84623,12.51699 12.99539,17.84804 1.1037,0.86181 1.31437,2.0243 3.08472,3.81465 -3.39555,0.18212 -5.50838,0.7123 -7.18666,1.06527 -2.09453,2.31093 -5.73369,1.06606 -7.65625,-0.86623 -1.85974,-1.68593 -5.03936,-1.95413 -6.15753,-4.36991 -0.41974,-1.11373 0.71017,-2.2113 0.78022,-3.0678 -0.41182,-0.52366 -0.33183,-1.8835 -2.25166,-1.34246 -0.33148,1.39021 -0.25633,2.90817 -0.32188,4.19034 -0.27866,0.74627 -0.50362,1.70365 0.61403,1.46665 1.57736,0.94228 -0.61447,2.01495 -1.59235,2.15745 -3.49739,1.00411 -6.58076,-1.09925 -10.0255,-0.77785 -2.85501,-0.52571 -6.01548,-2.81809 -7.11099,-5.5124 -1.04852,-1.70578 -4.78438,-4.76324 -1.64303,-4.11327 1.33283,-0.24798 5.44458,-0.63363 6.88031,0.0448 1.58786,0.3522 4.04199,0.83193 5.20773,-0.27965 -2.25414,-2.67364 -6.05059,-1.48371 -9.07708,-2.24301 -5.38131,-0.46066 -9.79843,-3.88886 -14.19194,-6.70935 -1.06381,-0.53852 -0.48632,-1.93816 -1.75031,-2.31181 -3.14204,-1.88422 -5.84482,-4.35148 -8.85441,-6.36315 -1.4826,-1.19443 -1.71146,-3.16276 -1.74257,-4.86359 -3.20334,-3.66295 -2.44204,-4.51467 -5.55077,-7.61273 -0.39905,3.03206 2.71818,6.00636 1.98008,8.95968 -0.29552,1.09081 -1.82144,2.08842 -2.52145,2.29568 0.61228,1.52112 -2.55337,0.88035 -3.76695,0.75665 -1.15842,0.11174 -3.63269,0.6684 -2.71808,-1.13839 1.46998,-2.28155 3.06847,-5.38774 1.78846,-8.04159 -1.21274,1.93895 -0.5727,4.77767 -2.33573,6.5506 -1.44913,1.58005 -3.0971,3.91425 -5.52901,3.27851 -1.219266,0.17389 0.176002,1.78396 -0.820794,2.41699 -2.888673,2.84793 -7.453471,2.34286 -10.831261,4.2015 -1.383229,1.10321 -3.485277,2.70936 -5.173079,1.12174 -1.566414,-0.6858 -2.62175,-2.33711 -1.955639,-4.03711 0.823477,-3.21478 3.642285,-5.50412 6.141669,-7.52193 1.009747,-0.37222 2.46514,-0.43894 2.262198,-1.91752 1.02088,-1.71899 3.48644,-1.71276 4.75528,-3.21204 1.060241,-0.44387 2.558457,-1.53643 1.341811,-2.67875 -0.898251,-0.45098 -2.242585,1.17364 -2.77266,-0.27139 -0.44964,-1.52557 2.382216,-1.38363 1.706834,-2.89123 -0.317401,-0.86756 0.345115,-2.49746 -0.420627,-3.00071 -1.815491,0.10417 -4.138091,1.87859 -5.544999,-0.12688 -2.728214,-2.39728 -4.932884,-5.9044 -8.484095,-7.19401 -0.49792,0.635134 0.516922,1.752858 0.218449,2.601679 0.188536,1.030342 1.665912,1.451401 2.18055,2.423511 0.857801,1.45066 3.24535,2.62069 2.846069,4.5294 -0.814269,1.37414 -3.317802,0.88899 -3.940698,2.18899 1.475888,2.23948 5.039416,0.37351 6.716255,2.22998 0.616532,1.41327 1.249149,3.7018 -0.527167,4.4883 -2.097463,1.69497 -3.556463,4.38878 -5.981661,5.59533 -1.437216,-0.23999 -1.62556,-2.15492 -2.767412,-2.91295 -1.244282,-1.97341 1.934008,-2.87816 2.521096,-4.33018 -0.836249,-0.45877 -2.141267,-0.35923 -2.844437,-1.23602 -0.987416,0.60338 -1.786486,1.54115 -2.702096,2.26695 -2.196421,-2.48827 -4.004779,-5.81297 -7.209926,-7.04958 -0.781104,0.47323 -0.08366,2.04774 0.575363,2.50183 1.96514,2.32911 5.05732,3.86359 6.190337,6.7632 0.547298,1.78687 2.906149,2.43427 3.997923,3.91289 2.167626,0.8635 0.753374,2.88834 0.506143,4.45958 -0.855097,3.45686 2.77612,6.37447 6.000631,6.00413 1.40552,0.15951 0.955939,2.0488 -0.338154,1.98769 -1.183633,-0.23682 -2.00786,0.76006 -3.081508,0.74883 -1.836856,-1.01204 -3.486105,-2.48041 -5.530091,-3.22962 -1.91692,-1.20019 -4.710897,-1.57271 -5.934436,-3.62299 -0.597579,-1.25108 0.227199,-2.629 1.397648,-3.09622 0.479887,-0.54341 1.359121,-1.93043 0.673845,-2.44664 -2.064486,-0.43768 -2.373874,3.103 -4.486666,2.76622 -2.838422,-2.30354 -3.897087,-6.29932 -6.472733,-8.83483 -1.314025,-0.3647 -0.538552,1.64883 -0.320365,2.22327 1.328251,2.59564 3.548059,4.65121 4.734292,7.35443 0.955715,1.48888 1.583305,3.43307 2.426761,4.81083 4.392449,-0.2954 8.145035,2.48431 11.737781,4.552 1.003341,1.35331 -0.782125,3.24672 -2.15047,3.51057 -1.574638,-0.58245 -3.369838,0.35996 -4.853018,-0.70813 -2.105087,-1.5716 -4.725126,-0.88718 -7.087487,-0.6235 -2.054163,-0.36021 -0.856581,-2.83906 -0.16544,-3.92954 0.627863,-0.92567 1.093524,-2.40551 -0.446203,-2.70772 -1.272769,-1.08113 -2.135976,1.39865 -3.187562,1.78588 -1.078787,-0.90214 -1.473097,-3.6705 -3.295646,-4.52813 -0.820239,-0.79193 -1.746414,-1.36481 -2.672548,-1.92651 -1.160265,-0.79777 -1.686301,-3.52039 -3.417286,-2.83871 0.219785,1.82928 1.63706,3.35903 2.275763,5.03984 2.068692,2.13386 5.21638,3.98279 5.707386,7.18127 -0.0582,0.88383 -0.556702,2.10362 0.790316,2.1474 1.890546,0.7293 4.273673,-0.047 5.924714,1.25157 0.10793,1.8102 -2.320293,2.23728 -3.526037,3.35771 l -2.975739,0.91451 c -1.553991,-0.15427 -3.490959,-0.126 -4.27677,-0.60049 0.575843,-1.09418 2.429515,-1.77078 2.198831,-3.38826 -2.045864,-0.0797 -2.699572,-0.34169 -2.880301,-0.50442 -0.02851,0.14039 -0.163436,0.40344 -0.617098,0.84894 -1.624004,1.14619 -2.836102,-1.29924 -3.518674,-2.4425 -1.301376,-2.11239 -2.534041,-4.64689 -3.525326,-7.1295 l 0.297009,-0.23306 c -1.06202,-6.66671 -5.372974,-14.75391 -1.82872,-21.30575 0.567596,-1.09574 2.300984,-0.96157 2.148371,0.4573 0.310163,1.25126 -0.292299,3.24889 0.743561,4.10454 0.633845,-0.40346 -0.235718,-2.2218 0.0059,-3.02379 -0.244665,-4.47709 -0.307356,-9.705167 2.893422,-13.175411 1.422335,-0.967971 1.868221,1.218561 1.917538,2.262197 0.33368,0.995338 0.0211,2.943871 1.029642,3.478354 0.370738,-1.557082 -0.248714,-3.733825 0.185204,-5.467939 0.206212,-3.247186 1.740531,-6.132899 2.929701,-9.039987 -0.139336,-1.86173 2.048736,-3.386603 3.736924,-4.262762 l 6.168384,1.525791 0.170659,0.07392 c 0.82826,0.394323 1.648988,0.798351 2.389242,1.035167 0.0143,0.0046 0.03098,0.0056 0.04524,0.0099 l 5.187816,2.238727 c 2.539814,1.408296 5.130571,2.749028 7.923996,3.623904 2.112209,0.780654 4.459657,0.899845 6.184942,2.525736 6.193204,4.389744 10.846324,11.63637 16.860904,16.18941 0.7806,-0.1714 -0.83319,-3.22613 -0.98752,-3.58066 -5.47862,-5.388652 -9.701834,-11.22239 -16.425972,-15.099959 -0.829306,-0.704455 -3.747985,-1.440425 -4.661482,-1.904928 -1.312462,-1.209659 -1.773571,-1.131701 -2.57147,-2.33394 1.040923,-1.318893 3.025917,-2.204706 5.132446,-4.605063 1.166392,-1.044161 9.140929,-1.349332 10.855052,-0.515347 2.735746,0.548621 6.025856,-0.49156 8.354496,1.318913 1.12896,0.762271 1.21919,2.215463 1.43023,3.332333 1.19969,0.91587 2.72264,1.615358 4.16695,0.693463 -0.2516,-1.182608 -1.10677,-2.47886 -0.74792,-3.857132 -0.17031,-1.91137 -2.46251,-2.647131 -2.44485,-4.652964 -0.83116,-2.126401 0.10652,-3.478788 2.1283,-4.307966 1.69375,-0.750567 3.41171,-3.158178 5.46476,-2.355017 1.06407,0.560418 2.22756,-0.872918 3.44279,-0.691462 1.32166,-0.05329 2.7025,-0.174186 4.08582,-0.203505 z M 56.537914,136.67532 c 0.04284,-0.21089 -0.161552,-0.14547 0,0 z M 186.06044,75.636703 c 1.75413,0.253268 0.0316,1.542048 -0.45202,2.743979 -1.12257,1.168222 -3.51197,1.075303 -4.48859,0.270885 0.2849,-1.121303 3.86557,-2.591298 4.94061,-3.014864 z m -39.94432,2.560408 c 0.0469,-0.0049 0.0977,0.0027 0.14664,0.01858 1.88181,0.493372 2.39558,3.025514 4.04035,3.821752 2.31182,-0.555747 3.31253,1.901639 4.48461,3.224979 2.03402,3.119841 4.30263,4.53215 8.29312,5.580678 3.12354,-1.353265 4.6528,-2.800078 6.53861,-3.756187 0.23053,-0.125143 0.44004,-0.16154 0.62584,-0.129801 0.19824,-0.351245 0.45216,-0.70634 0.75749,-1.055166 0.003,-0.008 0.008,-0.01496 0.0106,-0.0226 0.7883,-2.112575 3.60844,-2.727127 5.59827,-3.212992 0.55617,-0.121102 1.1323,-0.150067 1.70346,-0.182239 0.16138,-0.03362 0.33457,-0.0603 0.5151,-0.07054 1.26375,-0.07038 2.73215,2.505434 2.29259,4.027739 -0.69631,2.259074 0.44237,4.183629 -1.27063,4.834952 -1.25734,1.254014 -3.05412,-0.60304 -4.33481,-1.070967 -0.9208,-0.709861 -2.17182,-1.264075 -3.16955,-2.013809 -0.27564,0.03176 -0.56591,0.09943 -0.84861,0.203436 1.1256,0.768263 1.27692,2.437298 2.74464,2.902365 1.95595,1.640376 3.06899,0.799736 2.74151,2.790084 -0.24424,0.81289 -3.15381,-0.168749 -4.70419,-0.206472 -1.17721,-0.198483 -1.7144,-0.752651 -2.88373,-0.627956 -2.12093,2.974535 0.85465,0.05091 6.70253,2.545051 0.55612,1.12375 -2.10862,1.709595 -1.23949,1.911607 2.05894,-0.510339 2.34935,-1.306313 3.29895,-1.418065 l 1.80983,-0.803395 c 1.40482,-1.146322 1.3838,-1.422771 2.48278,-1.665179 0.009,0.0055 0.38406,0.492709 0.66207,1.173103 1.01121,1.068871 -0.0317,1.836773 -0.92718,2.633526 -0.85213,0.894031 -1.33288,1.278307 -2.09375,0.294234 l -0.45457,0.22622 c -0.44773,0.352174 -0.0965,0.941149 -0.54501,1.420172 -1.61588,2.103609 -4.27074,3.585309 -7.02283,2.915389 0.0294,1.30118 -0.99013,1.66321 -2.26815,0.89483 -4.11311,-2.46064 -7.87126,-5.685276 -11.57283,-8.726712 -1.32218,-0.96926 -1.83571,-2.688941 -3.15804,-3.621546 -1.37323,1.134834 -2.61893,-1.293693 -3.6862,-1.999445 -2.63259,-2.843182 -4.64424,-6.37146 -5.84316,-10.043764 -0.0172,-0.292848 0.24527,-0.761555 0.57373,-0.791548 z m 16.78293,2.871835 c 1.08976,-0.0048 6.2066,0.664027 9.28669,0.07905 -1.37957,2.06934 -8.13304,2.101264 -9.21455,3.324744 -0.46244,-1.563737 -2.58614,-1.352191 -2.03798,-2.955748 0.54201,-0.450688 1.30957,-0.380448 1.96584,-0.448041 z m 23.24452,1.197228 c -1.86153,2.835245 -1.36819,6.960158 -2.64825,11.077863 -0.81675,-1.920663 0.24143,-2.039931 0.16497,-3.770071 -0.80127,-0.241702 -0.62342,-0.287579 -1.82451,0.680177 -0.066,-2.517289 0.31389,-4.88461 0.64974,-6.548699 0.62803,-0.21536 2.44608,-0.407691 3.65805,-1.43927 z m -47.9363,14.686083 c -1.59602,0.61329 0.19021,2.036995 -4.09016,1.260215 -1.1432,1.280336 -3.37519,0.777851 -4.57218,1.711969 -0.19788,1.069859 -1.54053,0.993419 -2.08281,1.496659 0.28993,0.7615 1.98371,0.11028 2.67812,0.1054 0.90786,-0.32101 1.81619,0.18967 2.25976,0.82518 2.10777,0.29573 4.79814,-2.472198 6.74644,-1.53638 0.85118,0.55029 0.0744,1.2263 1.67762,2.52737 1.33013,-0.5941 -0.49306,-3.721168 1.54273,-3.13395 0.76312,0.86222 0.68248,3.48092 2.11692,3.36946 1.13104,0.19923 -0.38644,-2.92544 0.92281,-2.38615 0.73218,0.88714 0.95952,3.76046 1.54102,4.48702 0.56291,-0.49303 0.54614,-2.19008 1.81669,-1.3656 1.0006,0.54078 0.90282,2.44165 2.01676,2.59665 0.75783,-1.19161 -1.89913,-3.76226 -2.20432,-4.89572 -2.20682,-2.58622 -2.1076,-3.771962 -5.65273,-4.406422 -0.3182,-0.06755 -4.38975,-0.686766 -4.71667,-0.655701 z M 117.5807,97.73921 c -0.39242,0.01091 -0.89153,0.25646 -1.42453,0.916381 -1.61995,0.816604 -1.64026,3.178099 -2.16604,4.567559 1.56321,-0.80071 3.07899,-2.60968 3.89728,-4.154852 0.90698,-0.243401 0.55673,-1.348954 -0.30671,-1.329088 z m 113.67666,1.740638 c 1.81914,0.342894 1.05489,2.820062 0.18509,3.827822 -1.07168,1.17177 -5.0015,7.41239 -9.11165,15.11298 1.81439,-5.34018 6.37826,-14.58393 6.6934,-15.97869 0.57811,-0.98507 0.97679,-2.656159 2.23316,-2.962112 z m 4.96034,0.525302 c 0.15806,-0.03353 0.32817,0.065 0.51635,0.37907 1.37285,1.58954 3.93281,2.61407 4.41601,4.80046 -0.84759,1.81691 -4.32732,3.46178 -5.26004,5.27181 -3.22996,3.90228 -5.17864,7.25819 -9.17758,10.31522 -0.67169,0.47566 -1.25361,-1.08673 -1.62953,0.0115 -0.0151,1.34548 -2.08105,1.52589 -1.78676,0.0159 1.47316,-5.35289 4.71029,-10.06626 7.73048,-14.65872 1.96422,-1.33269 2.46203,-3.68023 4.16121,-5.17378 0.37797,-0.20772 0.68212,-0.88765 1.02985,-0.96159 z m -54.59689,3.94566 c -0.0305,-0.003 -0.0718,0.0128 -0.1117,0.0254 -1.18413,0.18773 -2.44137,0.76365 -2.51522,2.11566 -1.47543,3.28193 -4.86886,5.54879 -8.29942,6.32296 -1.09141,0.004 -1.49853,0.49077 -0.11636,0.26175 1.76314,-0.48931 3.97836,0.30937 5.50785,-0.80502 0.98514,-1.01808 3.22846,-4.11381 3.18409,-3.52809 -0.0216,1.47645 -0.59555,3.37793 -0.34277,4.6518 0.97669,-0.12488 1.52956,1.23675 1.85169,1.51091 0.53288,-1.28945 0.48324,-2.77452 0.78425,-4.13572 1.69787,1.26783 3.23783,3.43171 5.10393,4.07321 -0.85836,-2.63371 -3.79872,-3.89289 -5.25279,-6.19351 -1.89024,-1.20766 -0.3758,-2.64374 0.2573,-4.08737 0.0748,-0.12268 0.0406,-0.20529 -0.0509,-0.21217 z m 61.70662,1.11716 c 0.0389,-0.008 0.0817,-0.008 0.12355,-0.003 1.69284,0.3199 0.53237,2.56091 0.46215,3.6852 -1.58174,5.67797 -2.25673,11.49059 -2.11337,17.38008 -0.37708,5.98357 0.15473,12.42342 -2.43469,17.951 -0.96097,1.11283 -1.39144,2.98565 -2.74419,3.58326 -1.65563,-0.51142 -0.82499,-3.00303 -1.25492,-4.30384 -0.40312,-4.01671 -0.0552,-6.18667 -1.03384,-10.09879 -1.30373,-3.07731 -5.51237,-1.35257 -6.76017,1.04219 -0.69857,1.05313 -0.65232,2.97047 -0.40643,4.3838 -2.32338,-4.33601 -4.75846,-1.07171 -6.03295,-0.29316 -1.78357,1.23091 0.22493,5.87903 1.33982,6.54957 -0.28751,1.15389 0.84967,4.71465 0.60819,5.70439 0.15948,2.38679 -0.1666,2.5689 0.36701,4.71073 -0.14304,2.24143 0.0687,1.58472 -2.02917,0.59594 -3.13101,-2.32687 -6.35213,-4.64376 -9.71426,-6.56405 -1.58311,-1.75257 -3.1969,-2.27505 -5.51539,-1.48773 -1.89405,1.26118 -1.55767,2.51973 -1.13869,3.51612 -1.71171,-0.2792 -1.0289,0.43116 -1.93588,0.71701 -0.2527,1.28691 -2.30386,1.3221 -1.24908,5.60992 2.26054,2.31179 1.35758,1.87681 2.7512,3.54289 -1.23319,0.86632 12.58835,8.00367 11.26189,6.94648 -2.75395,-1.29926 -19.23138,-6.82899 -21.70516,-8.60075 -3.32245,-4.2519 -5.844,-9.2352 -10.0554,-12.77045 -5.46073,-5.81048 -10.01484,-12.50878 -14.23839,-19.2972 3.76424,-0.81449 7.61377,-1.55546 11.4366,-0.62144 6.10501,0.97806 12.29364,2.04357 18.19253,3.84428 3.76286,1.59856 7.82718,3.30856 11.84009,3.78481 1.03186,-1.45288 3.59784,-0.34799 3.95473,-2.49289 1.55912,-3.1106 4.84964,-10.051 6.06356,-12.75771 -1.65905,6.78186 -5.91948,13.86475 1.94847,4.18345 -1.06606,2.37431 -7.05926,9.08767 -9.05153,10.80626 5.65806,-2.00369 7.75091,-5.1589 9.39667,-7.28643 2.71152,-2.81417 4.76309,-6.29372 7.6629,-9.00291 3.90406,-4.20112 7.31399,-9.07536 11.67064,-12.82366 0.11293,-0.0373 0.21674,-0.10879 0.33351,-0.13293 z m -78.68609,11.58432 c -0.0353,9.8e-4 -0.0685,0.006 -0.10077,0.014 -0.51545,0.15961 -1.17944,1.37583 -2.09465,2.28385 -0.91521,0.90787 -0.7472,6.09704 0.0613,5.84325 0.80847,-0.2539 1.85027,-4.74826 2.68672,-6.05453 0.78418,-1.22467 -0.0242,-2.11186 -0.55258,-2.08659 z m 11.52406,4.14202 c 4.08055,0.75676 25.45635,8.39288 29.89136,10.63415 1.35622,0.76941 -8.0194,-1.90679 -16.32467,-4.98649 -4.24461,-0.65321 -8.42464,-1.74359 -12.38077,-3.42131 -1.10082,-0.19686 -1.91536,-2.22924 -1.18592,-2.22635 z m -20.59971,2.15756 c -0.14633,-0.008 -0.25031,0.0199 -0.30138,0.0758 -0.59186,0.53966 4.61197,2.16399 4.39192,1.50773 -0.0592,-0.10101 -3.06618,-1.52901 -4.09054,-1.58355 z m 76.41715,10.30743 c 2.19802,0.25575 1.7639,2.05235 1.82554,3.8047 0.15734,4.41909 1.26985,9.95138 0.34082,14.034 0.46547,1.85367 1.08309,4.80959 -0.73135,5.04696 -1.1177,0.74211 -1.25615,1.13575 -2.19078,2.55629 -0.12142,1.28804 -2.27025,0.24476 -2.62431,1.51783 -0.16341,1.00067 1.73637,1.35848 4.19566,-2.24151 4.37707,-3.2559 2.3698,-5.10276 3.67676,-7.70468 0.30988,2.57744 -0.79134,6.56234 -0.1516,8.43926 -3.73758,4.99119 -1.85863,2.8452 -4.77987,5.3031 -1.16797,1.30721 -2.59492,2.72344 -4.43668,4.05266 -1.93069,2.62934 -7.08096,-0.13666 -9.56922,-1.2931 -3.01365,-0.93461 -5.96724,-3.19002 -8.89867,-4.31618 -2.05939,-1.19451 -3.69194,-2.21118 -4.3536,-4.57743 -0.77288,-1.29397 -1.50957,-2.97212 0.44044,-3.96883 1.32221,0.64126 0.40795,0.95428 2.008,1.47286 4.31016,2.60275 8.98151,6.27085 13.70682,7.85813 -0.65223,-2.39406 -3.81693,-2.55315 -5.59063,-3.78995 -2.14729,-0.98575 -3.46618,-2.7635 -5.70013,-3.68573 -1.87216,-1.02023 -3.56945,-3.91876 -2.35223,-6.17296 1.69581,-0.57679 3.18709,0.0448 5.42804,1.98472 2.56033,1.22112 4.36165,3.54148 7.04328,4.69376 1.49395,0.88244 4.02328,1.30562 3.86375,3.53445 0.63958,0.43269 0.86645,-1.22445 1.36337,-1.49914 0.89961,-0.94132 0.41437,-2.23987 0.75962,-3.40447 -0.0228,-1.68559 -0.71749,-3.46923 0.13374,-4.89323 -1.56815,-1.92258 -0.12619,-2.56461 -2.95939,-7.79721 -1.6729,-2.40431 1.02037,-3.57983 2.04001,-3.84468 2.37846,0.0742 3.77659,5.25418 4.09159,6.87773 1.17679,3.30672 0.79681,7.13082 1.20851,7.89084 -0.35855,5.42866 2.15938,-2.26834 0.36798,-7.38387 -0.94105,-4.68412 -2.62053,-5.94419 -1.48935,-10.71559 0.55862,-1.22556 2.03192,-1.59117 3.33388,-1.77873 z m -17.04241,1.54162 c -0.24954,0.0116 -0.34706,0.23744 -0.14849,0.72351 0.61738,1.51083 1.35079,4.26822 2.53572,8.326 1.19651,4.09745 1.15633,5.33752 1.70917,4.06644 0.58784,-1.35151 -1.58353,-9.25177 -1.96484,-10.83722 -0.3198,-1.32988 -1.5826,-2.30475 -2.13156,-2.27873 z m -3.49239,1.33348 c -0.3239,0.0371 -0.49449,0.42272 -0.22773,1.10792 0.66226,1.70066 4.22879,13.80672 5.28106,14.48804 0.94395,0.61123 -0.67424,-4.71992 -1.49365,-6.82629 -0.74783,-1.92237 -1.55007,-4.84157 -2.14071,-7.05563 -0.32783,-1.22886 -1.00251,-1.76126 -1.41897,-1.71404 z m 29.82484,7.83719 c 1.63169,0.0995 1.12574,2.07943 2.02581,2.92235 0.8059,4.22236 2.74474,7.6485 3.83554,12.22401 1.25981,5.45096 1.43415,9.70646 1.6436,14.64537 0.18834,1.88799 0.41145,3.8066 -1.3789,4.98407 -1.71852,2.44953 -5.09202,2.08488 -7.6752,2.89981 -1.89258,0.45054 -4.24452,-0.32205 -5.69878,1.21502 -2.84978,-0.8772 -4.49009,-1.40635 -7.34802,-1.50426 -2.52145,-0.66903 -2.42172,-3.88322 -3.75367,-5.63943 -0.62006,-1.9325 -3.02108,-5.04117 -4.68365,-7.06946 1.23046,-0.0432 2.56725,0.0568 3.9914,0.9507 1.50923,0.66236 4.86802,2.91128 5.73159,-0.46611 1.80162,-0.86083 3.0749,-2.04047 3.68948,-3.09666 2.33653,-0.73725 3.57729,-2.24241 3.27997,-3.52356 1.82302,-1.03306 3.77401,-3.31407 1.85566,-7.29556 1.01167,-2.66109 0.864,-3.10249 0.95058,-5.57611 1.29327,-1.88577 0.0859,-0.58477 1.32234,-2.36025 l 0.12324,-0.0146 0.12449,0.0303 c 0.13085,0.0574 0.25764,0.11787 0.38718,0.18031 l 0.45735,-1.33907 c -0.49851,-0.92159 -0.22937,-2.08199 1.12,-2.1668 z m -78.3842,6.2705 c 1.12369,0.58455 2.27851,-0.0436 2.52774,-0.048 2.32241,0.5231 4.42724,1.5788 5.07553,3.86045 -0.14334,1.83988 -11.37892,0.0511 -12.57069,-0.14511 -1.80893,-0.77283 -0.82682,-0.85017 -2.02487,-2.48402 0.13981,-1.67709 4.75389,-0.33858 6.99229,-1.18353 z m 19.55492,0.69282 4.23184,0.60174 c 1.37216,1.70851 3.74982,3.20317 3.92028,5.56739 -1.3571,1.76571 -2.93631,-2.02375 -4.22435,-0.33218 -2.52938,0.86282 -5.21941,-0.0288 -7.6107,-0.84505 -1.07666,-0.0638 -4.31056,-0.18245 -6.21676,-2.05273 -0.0363,-1.29254 2.21309,-1.17868 3.81593,-1.01656 2.77481,-1.00812 3.12714,-1.62741 6.08376,-1.92261 z"
       style="fill:#000000;fill-opacity:1" />
  </g>
</svg>
